<?xml version="1.0" encoding="UTF-8"?>
<svg width="116px" height="32px" viewBox="0 0 116 32" version="1.1" xmlns="http://www.w3.org/2000/svg" xmlns:xlink="http://www.w3.org/1999/xlink">
    <!-- Generator: Sketch 50.2 (55047) - http://www.bohemiancoding.com/sketch -->
    <title>img_logo_ditap</title>
    <desc>Created with Sketch.</desc>
    <defs>
        <polygon id="path-1" points="0.021342524 0.0512388743 27.876595 0.0512388743 27.876595 32 0.021342524 32"></polygon>
    </defs>
    <g id="Rezani" stroke="none" stroke-width="1" fill="none" fill-rule="evenodd">
        <g id="Artboard" transform="translate(-221.000000, -57.000000)">
            <g id="Dita-P-logo" transform="translate(221.000000, 57.000000)">
                <g>
                    <path d="M32.0414556,8.25319765 C32.2009689,8.77373756 32.6767077,9 33.0956881,9 C33.1132316,9 33.1304802,8.99972739 33.1475815,8.99890958 C33.5698052,8.9798272 33.8967927,8.74661333 33.962544,8.41798758 C34.128544,7.61039424 33.7002759,7.25750662 33.5083292,7.14328498 C33.1741179,6.94414677 32.7474714,6.95327905 32.4213685,7.16632013 C32.0735941,7.39353669 31.9258748,7.8021721 32.035706,8.23275225 L32.0414556,8.25319765 Z" id="Fill-1" fill="#ED1C24"></path>
                    <path d="M24.840425,14.0481852 C20.8010356,15.4411275 15.9402779,16.7285325 7.95342552,16.8454468 C8.55542407,14.3619528 9.23770899,11.9778584 9.98476024,9.74900105 C10.1189191,9.34691154 9.9022354,8.90889445 9.49796815,8.77147145 C9.41842794,8.74497486 9.33739541,8.7325499 9.25770597,8.7325499 C8.93656048,8.7325499 8.63541198,8.93613953 8.52677169,9.25769138 C7.74181572,11.5967266 6.99789833,14.2070151 6.36545662,16.8400577 C4.33740499,16.7126645 2.86270254,15.7444162 2.08580506,14.0225868 L2.08580506,14.0222874 C0.910161887,11.4188851 1.64751311,7.98510651 3.8391221,5.85759491 C6.20816696,3.55748122 10.3842521,0.96141408 16.8256664,1.65855885 C20.3394636,2.03834333 22.7993902,3.24760583 24.1370985,5.25251456 C25.6291117,7.48915619 25.8601216,10.3674045 24.840425,14.0481852 M7.59989687,18.3891352 C14.1726346,18.2686282 19.3748333,17.4773232 24.2487234,15.8475583 C23.2050006,18.5320971 21.2691738,21.9300978 19.8708777,23.8350081 L19.8707285,23.8351578 C18.1572562,26.172696 15.8271606,28.1825448 13.4781127,29.3497421 C11.0732524,30.543436 8.84791717,30.7712767 7.21219429,29.9906003 C6.64213121,29.7184489 5.55378827,28.039583 7.59989687,18.3891352 M57.5004132,29.1088776 C57.4638515,29.1088776 57.426693,29.1085782 57.3892359,29.1082788 C56.0121307,29.0849259 55.17375,28.0436248 55.2010593,26.3903573 C55.2520963,23.2336702 56.4399765,20.4694919 58.3804294,18.9948144 C58.4301234,18.9566413 58.4754896,18.9118816 58.5150359,18.8621817 C59.8639365,17.9327053 61.2423848,17.5261248 62.6151624,17.6526198 C63.3923583,17.7241756 64.0694201,17.9071069 64.5214414,18.0575536 C64.5111444,18.0915351 64.5008474,18.1267142 64.4901028,18.1626418 C63.9122797,20.0868632 62.154038,25.9424601 60.7366404,27.5575546 L60.7329096,27.5615964 C59.9807845,28.4373312 59.2614902,29.1090273 57.5004132,29.1088776 M78.5512608,15.9225571 L78.5511115,15.9225571 C78.363528,15.8363309 78.1537089,15.8286963 77.960753,15.9007012 C77.7686925,15.9725563 77.6163275,16.1149194 77.5341011,16.2963536 C76.2980193,18.9237077 72.0628386,26.7879559 68.9209255,28.4057449 C68.00584,28.8820847 66.9158555,28.96382 66.3052016,28.7999004 C66.29386,28.7963076 66.2814738,28.7927149 66.2669984,28.7889724 L66.2410321,28.7831342 C64.9706272,28.5259526 64.6524663,27.7918323 64.6939526,25.2123817 C64.7202173,23.5302224 65.2408848,21.0516684 66.2426737,17.8421378 C66.355194,17.4723831 66.1817874,17.0867604 65.8437788,16.9226911 L65.7951294,16.8996376 C65.6590306,16.8355668 64.4174272,16.269408 62.7546935,16.1164163 C61.0552489,15.9608798 59.3963952,16.4219505 57.7905186,17.4918439 L57.9818329,17.1072691 L57.5202609,17.6780685 C55.8867765,18.8406252 54.3080599,20.6379024 52.7963482,23.0618166 C49.5647471,28.2424241 47.4540214,29.436118 46.2530089,29.5250387 C45.2486832,29.5980915 44.8536682,29.4075256 44.7972589,29.377586 C44.7727849,29.3558797 44.7505495,29.3388141 44.7330895,29.3260898 L44.7151817,29.3135151 C44.7130925,29.3121678 44.7111525,29.3108205 44.7092125,29.3093236 L44.6723524,29.2799827 C44.1606387,28.8216066 43.942015,26.4833199 44.06722,24.5947267 L44.0679661,24.5796072 C44.233165,20.1813228 45.2606216,15.7215123 46.1379517,12.6350337 C51.0822789,12.6669194 55.2982088,12.5010538 59.0146619,12.1296524 C59.2210486,12.1100419 59.4066922,12.010792 59.5375679,11.8498664 C59.6681452,11.6895395 59.7279869,11.487896 59.7061991,11.2852045 C59.6641159,10.8681452 59.2919334,10.5590183 58.8643861,10.5949459 C55.317758,10.9492817 51.2986641,11.1145485 46.5954945,11.0965847 C46.7774073,10.5091688 46.9654386,9.92983655 47.1569022,9.3671208 C47.49506,8.46384153 47.8088931,7.60771721 48.1166078,6.7503953 C48.2576313,6.35758708 48.0564677,5.91762391 47.6707051,5.77047053 C47.2795702,5.6183771 46.8459044,5.80370354 46.6781686,6.20459547 C46.6059407,6.38303579 46.2200289,7.34619436 45.715926,8.82416523 C45.4349237,9.5735547 45.1507875,10.3153096 44.8509821,11.0816149 C44.4265686,11.0763755 44.0379707,11.0709863 43.6908589,11.0660463 L43.6710112,11.0657469 C43.6263911,11.0548189 43.5801294,11.0477831 43.532077,11.0447891 C42.0748346,10.9624551 39.3665873,10.7488357 37.5965563,10.2425562 C37.1924383,10.1293843 36.7680249,10.3660573 36.6483415,10.7762305 C36.5352242,11.1829606 36.7723526,11.6090019 37.1782614,11.7259162 C39.0582757,12.2631832 41.818157,12.4892276 43.3452396,12.5776993 C43.4061259,12.5947649 43.4693999,12.6040462 43.534017,12.6055432 L43.5716232,12.6064413 C43.7786069,12.6094353 44.001409,12.6127287 44.2385373,12.6158723 C41.7533906,18.744968 40.3185329,20.9747235 40.252722,21.0756201 C39.0364879,22.9880153 34.854732,29.2721984 32.1091769,29.8432972 C31.1208189,30.0477851 30.5798559,29.781921 30.4865864,29.7299757 C30.0866468,29.3954001 29.286917,28.0039548 29.9632326,22.2567394 C30.3700368,18.7996079 31.1760344,14.9323031 31.7953437,12.4628807 C31.8263838,12.3365354 31.8247423,12.2045015 31.791016,12.0792041 C31.7751975,12.0101932 31.7520667,11.947769 31.7214743,11.8913328 C31.5226984,11.5184344 31.0566494,11.3769696 30.6864069,11.5736731 C28.9198083,12.4926707 27.5741908,13.072452 26.5321095,13.4763379 C27.1194834,10.6088678 27.2288699,7.11266508 25.4151142,4.39564175 C23.8129683,1.99253566 20.9783222,0.555731808 16.9902684,0.12490023 C9.96118171,-0.63526751 5.37635241,2.21992731 2.76883614,4.74922903 C0.127444389,7.31385954 -0.749139516,11.4808602 0.684524355,14.6574571 C1.6598993,16.8207466 3.54961363,18.1216245 6.02789571,18.3476688 C4.33740499,26.3756869 4.50275313,30.404516 6.55124943,31.3832432 C7.40768713,31.7923685 8.36351278,32 9.39246172,32 C11.344107,32 13.5327314,31.2551015 15.7219527,29.8459918 C17.7380658,28.5482576 19.6515079,26.738256 21.1100934,24.7496644 C22.864455,22.359133 25.1415735,18.4711699 25.995325,15.5839396 L25.5258437,15.4442712 L25.7756567,15.3556498 C27.2555823,14.830658 28.5216595,14.3035705 29.9395049,13.6160064 C29.5586669,15.3231653 28.9290606,18.3729678 28.543895,21.4483688 C27.8736978,26.7981353 28.2105125,29.9138051 29.5738885,30.9733694 L29.6091071,30.998369 C29.7487875,31.0905831 30.3751107,31.4600384 31.4183858,31.4600384 C31.7077451,31.4600384 32.029189,31.4315957 32.3810761,31.3609381 C34.7117685,30.8947778 37.9669481,27.5380938 41.5387962,21.9217147 C41.5728209,21.8714161 42.1152762,21.0588539 43.1109466,19.0138261 C42.7906965,20.9416402 42.5969945,22.7769408 42.5325266,24.499818 C42.4562695,25.6536922 42.3253937,29.4858178 43.8118854,30.5618489 C44.0454322,30.7581033 44.5886337,31.0646853 45.7120459,31.0829485 C45.9232081,31.0869903 46.1434733,31.0799545 46.3649323,31.0628889 C48.5960876,30.8982208 51.0482542,28.6744533 53.8540987,24.2688336 C53.7393399,24.9496613 53.6750213,25.6518958 53.6633813,26.3655074 C53.6221935,28.8901684 55.1097298,30.611399 57.3650605,30.6483745 C59.8624442,30.692236 60.9740672,29.6449471 61.8934804,28.575353 C62.2965538,28.1159291 62.7179826,27.423874 63.1652285,26.483769 C63.2470071,28.0828458 63.7072361,29.829525 65.9092913,30.2898471 C66.2064105,30.3699357 66.543076,30.4131985 66.9094386,30.4187373 C67.839298,30.4341563 68.8015406,30.2057167 69.6279828,29.7765318 C73.9013667,27.5747699 78.8803155,17.0505334 78.9268756,16.9487386 C79.0143251,16.7617655 79.0237267,16.5523377 78.9529911,16.3584784 C78.8819571,16.1640204 78.7392921,16.0092324 78.5512608,15.9225571" id="Fill-3" fill="#ED1C24"></path>
                    <g id="Group-7" transform="translate(88.000000, 0.000000)">
                        <mask id="mask-2" fill="white">
                            <use xlink:href="#path-1"></use>
                        </mask>
                        <g id="Clip-6"></g>
                        <path d="M19.6172492,12.1052967 L19.7485647,11.3879507 C19.8372064,10.9026427 19.9259979,10.4174863 20.0158374,9.93339147 C20.0547679,9.7280455 20.0117947,9.51966635 19.8948535,9.34677536 C19.7779123,9.1737327 19.6013775,9.05756209 19.4007358,9.02025403 C19.1981476,8.98127773 18.992415,9.02480379 18.8220193,9.14264265 C18.6526717,9.2601782 18.5381262,9.43777062 18.4997947,9.64341991 C18.4113027,10.1197801 18.324308,10.5959886 18.2374631,11.0718938 L18.0979123,11.8344341 C17.7442439,13.776728 17.3785968,15.7852967 16.9731209,17.7335052 C16.864415,18.2174483 16.7576556,18.7262635 16.6446075,19.2649555 L16.5977412,19.4885005 C15.7170139,23.6964246 14.6214203,28.9315336 11.8717305,30.08869 C10.247431,30.658927 8.65292834,30.5403299 7.13269305,29.7360834 C4.96157005,28.5912114 3.1312385,26.133581 2.35637219,23.3221308 C1.38385882,19.7903014 1.43851123,17.2786806 1.84159144,14.3707754 C2.69162353,8.22237725 7.72922781,1.66647204 15.3911957,1.62704076 L15.4103615,1.62658578 C15.6087572,1.61824455 15.8055059,1.6139981 16.0018053,1.6139981 C20.3707037,1.6139981 24.1477091,3.67716398 25.7278374,6.97452891 C26.7837519,9.12914502 26.4392171,11.8398938 24.8285433,14.0489555 L24.8285433,14.0491071 C23.3187893,16.1207659 20.9956877,17.2993062 18.6546182,17.213164 C19.0055914,15.4672682 19.3287144,13.6908891 19.6172492,12.1052967 M27.1130139,6.28493649 C25.1970353,2.28948626 20.5828749,-0.15282654 15.364693,0.0646521327 C11.4831743,0.0867943128 7.93630802,1.60216872 5.10711016,4.44698389 C2.52242567,7.0444436 0.81966631,10.4914957 0.31222246,14.1534483 C-0.118109091,17.2597232 -0.175157219,19.9469649 0.869227807,23.740254 C1.75474652,26.9534483 3.88094973,29.7817327 6.41786952,31.1211829 C7.52050053,31.7041592 8.68422246,32.0000455 9.87684278,32.0000455 C10.7180406,32.0000455 11.5689711,31.850055 12.4059765,31.5543204 L12.4323294,31.5443109 C15.9589818,30.0792872 17.1504043,24.386472 18.1079444,19.8116853 C18.1835594,19.4484626 18.2567786,19.0979791 18.3292492,18.7596284 C18.5227037,18.7737327 18.7143615,18.7808607 18.9022759,18.7808607 C21.6543615,18.7808607 24.3344257,17.3587564 26.0711743,14.9768038 C28.0260834,12.2945668 28.4251209,8.96429194 27.1130139,6.28493649" id="Fill-5" fill="#ED1C24" mask="url(#mask-2)"></path>
                    </g>
                    <path d="M109.506117,30.1423873 C109.171203,29.9439511 108.744371,29.9534913 108.418899,30.1674643 C108.071738,30.3950662 107.925379,30.8035229 108.036624,31.2335133 L108.041492,31.2506856 C108.198917,31.7726707 108.67547,32 109.09522,32 C109.111302,32 109.127531,31.9995911 109.143465,31.9989097 C109.568379,31.9810559 109.897687,31.7466396 109.962605,31.4187294 C110.128734,30.6093118 109.698804,30.256597 109.506117,30.1423873" id="Fill-8" fill="#ED1C24"></path>
                </g>
            </g>
        </g>
    </g>
</svg>