<?xml version="1.0" encoding="UTF-8"?>
<svg width="60px" height="62px" viewBox="0 0 60 62" version="1.1" xmlns="http://www.w3.org/2000/svg" xmlns:xlink="http://www.w3.org/1999/xlink">
    <!-- Generator: Sketch 55.1 (78136) - https://sketchapp.com -->
    <title>Group 43</title>
    <desc>Created with Sketch.</desc>
    <g id="Designs" stroke="none" stroke-width="1" fill="none" fill-rule="evenodd">
        <g id="DitaP_D_Category_Story_Pyzama_01" transform="translate(-439.000000, -3014.000000)" stroke="#231F20" stroke-width="1.96261682">
            <g id="Recepty" transform="translate(0.000000, 1309.000000)">
                <g id="Produkt-L" transform="translate(130.000000, 1247.000000)">
                    <g id="Icon-Copy" transform="translate(270.000000, 453.000000)">
                        <g id="Group-43" transform="translate(40.000000, 6.000000)">
                            <path d="M36.0200835,21.0386916 C36.0200835,12.8478505 29.3517728,6.20803738 21.127035,6.20803738 C12.901734,6.20803738 6.23398641,12.8478505 6.23398641,21.0386916 C6.23398641,29.228972 12.901734,35.868785 21.127035,35.868785 C29.3517728,35.868785 36.0200835,29.228972 36.0200835,21.0386916 Z" id="Stroke-1"></path>
                            <path d="M20.7375903,21.0386916 L21.3389883,6.20803738" id="Stroke-3"></path>
                            <path d="M20.7612408,20.9056262 L26.4204641,7.17459813" id="Stroke-5"></path>
                            <path d="M20.8288699,20.7889907 L30.8623068,9.81347664" id="Stroke-7"></path>
                            <path d="M20.9322563,20.7024673 L34.1303534,13.8063925" id="Stroke-9"></path>
                            <path d="M21.0592932,20.6564299 L35.8301476,18.6713832" id="Stroke-11"></path>
                            <path d="M21.1945515,20.6564299 L35.7564932,23.8224112" id="Stroke-13"></path>
                            <path d="M21.3215883,20.7024673 L33.9182874,28.636486" id="Stroke-15"></path>
                            <path d="M21.4255379,20.7889907 L30.537732,32.534972" id="Stroke-17"></path>
                            <path d="M21.493167,20.9056262 L26.0211087,35.0471215" id="Stroke-19"></path>
                            <path d="M21.5162544,21.0386916 L20.9148563,35.868785" id="Stroke-21"></path>
                            <path d="M21.493167,21.1711963 L15.8339437,34.9022243" id="Stroke-23"></path>
                            <path d="M21.4255379,21.2878318 L11.3915379,32.2633458" id="Stroke-25"></path>
                            <path d="M21.3215883,21.3743551 L8.12349126,28.2709907" id="Stroke-27"></path>
                            <path d="M21.1945515,21.4203364 L6.42369709,23.4053832" id="Stroke-29"></path>
                            <path d="M21.0592932,21.4203364 L6.49735146,18.2549159" id="Stroke-31"></path>
                            <path d="M20.9322563,21.3743551 L8.33555728,13.4403364" id="Stroke-33"></path>
                            <path d="M20.8288699,21.2878318 L11.7166757,9.54185047" id="Stroke-35"></path>
                            <path d="M20.7612408,21.1711963 L16.2327359,7.02970093" id="Stroke-37"></path>
                            <path d="M30.8624757,9.81330841 L34.6116408,6.32209346 C39.8457184,1.10994393 48.3311748,1.10994393 53.5652524,6.32209346 C58.798767,11.534243 58.798767,19.9847103 53.5652524,25.1968598 L32.577699,46.0959252 C29.3967087,49.2635888 29.3967087,54.3989159 32.577699,57.5660187 L32.5782621,57.5660187 C35.7586893,60.7336822 40.9156214,60.7336822 44.0960485,57.5660187 L46.9960485,54.6781682" id="Stroke-39"></path>
                            <path d="M41.8315146,21.0386916 C41.8315146,9.65158879 32.5616505,0.420560748 21.1266408,0.420560748 C9.69219417,0.420560748 0.422330097,9.65158879 0.422330097,21.0386916 C0.422330097,32.4257944 9.69219417,41.6568224 21.1266408,41.6568224 C32.5616505,41.6568224 41.8315146,32.4257944 41.8315146,21.0386916 Z" id="Stroke-41"></path>
                        </g>
                    </g>
                </g>
            </g>
        </g>
    </g>
</svg>