<?xml version="1.0" encoding="UTF-8"?>
<svg width="61px" height="62px" viewBox="0 0 61 62" version="1.1" xmlns="http://www.w3.org/2000/svg" xmlns:xlink="http://www.w3.org/1999/xlink">
    <!-- Generator: Sketch 55.1 (78136) - https://sketchapp.com -->
    <title>Group 15</title>
    <desc>Created with Sketch.</desc>
    <g id="Designs" stroke="none" stroke-width="1" fill="none" fill-rule="evenodd">
        <g id="DitaP_D_Category_Story_Pyzama_01" transform="translate(-240.000000, -3013.000000)" stroke="#231F20" stroke-width="1.96261682">
            <g id="Recepty" transform="translate(0.000000, 1309.000000)">
                <g id="Produkt-L" transform="translate(130.000000, 1247.000000)">
                    <g id="Icon" transform="translate(76.000000, 453.000000)">
                        <g id="Group-15" transform="translate(35.000000, 5.000000)">
                            <path d="M11.2979991,48.5417383 L0.131970755,59.7908972" id="Stroke-1"></path>
                            <path d="M28.0156491,55.3791589 C33.9579509,59.3593458 42.0526396,58.7094393 47.2919509,53.4311215 C50.0309981,50.6716822 51.5098943,47.1266355 51.7381019,43.5171028 C52.9125358,42.9316822 54.0162811,42.15 54.994234,41.1642056 C59.8083,36.3142991 59.8083,28.4514953 54.994234,23.6015888 C54.5021962,23.1053271 53.9778755,22.6634579 53.4296208,22.2692523 C55.2268943,17.787757 54.3224132,12.4634579 50.7156208,8.83037383 C47.0782151,5.16588785 41.7337057,4.27205607 37.2613943,6.14551402 C36.7910642,5.4064486 36.2372434,4.70495327 35.5954792,4.05841121 C30.7814132,-0.791495327 22.9761585,-0.792056075 18.1620925,4.05841121 C17.0410925,5.18719626 16.1844792,6.48140187 15.5861302,7.86140187 C12.2465075,8.23037383 9.00484717,9.70065421 6.44446981,12.2800935 C1.21740377,17.5460748 0.563950943,25.6757944 4.48466792,31.6584112" id="Stroke-3"></path>
                            <path d="M47.5935189,20.0345047 C50.2963868,20.3255327 52.9224434,21.5143178 54.9941226,23.6014206" id="Stroke-5"></path>
                            <path d="M39.1363142,11.5143364 C38.8474368,8.79134579 37.6674368,6.14573832 35.5957575,4.05807477" id="Stroke-7"></path>
                            <path d="M50.9712132,37.598972 C52.7690434,42.9737383 51.5422887,49.1492523 47.2920623,53.4311215" id="Stroke-9"></path>
                            <path d="M22.1598991,8.57259813 C16.8248519,6.76194393 10.6949745,7.99783178 6.44474811,12.2797009" id="Stroke-11"></path>
                            <path d="M11.0077302,48.8987664 C11.0077302,48.8987664 6.57104151,48.0340935 4.68359811,42.5269907 C2.79504151,37.0193271 3.70453208,30.432785 3.70453208,30.432785 C3.70453208,30.432785 9.85277736,34.4466168 12.1905132,42.2101682 C16.3043717,39.1137196 20.2874283,39.5494206 20.2874283,39.5494206 C20.2874283,39.5494206 20.7199094,43.5626916 17.6463434,47.7066168 C25.3530792,50.061757 29.3366925,56.2557757 29.3366925,56.2557757 C29.3366925,56.2557757 22.7988245,57.1720374 17.3318623,55.2699813 C11.8654566,53.3679252 11.0077302,48.8987664 11.0077302,48.8987664 Z" id="Stroke-13"></path>
                        </g>
                    </g>
                </g>
            </g>
        </g>
    </g>
</svg>