<?xml version="1.0" encoding="UTF-8"?>
<svg width="80px" height="44px" viewBox="0 0 80 44" version="1.1" xmlns="http://www.w3.org/2000/svg" xmlns:xlink="http://www.w3.org/1999/xlink">
    <!-- Generator: Sketch 50.2 (55047) - http://www.bohemiancoding.com/sketch -->
    <title>ico_cupon500</title>
    <desc>Created with Sketch.</desc>
    <defs></defs>
    <g id="Rezani" stroke="none" stroke-width="1" fill="none" fill-rule="evenodd">
        <g id="Artboard" transform="translate(-915.000000, -417.000000)">
            <g id="ico_cupon500" transform="translate(915.000000, 417.000000)">
                <path d="M23.1699219,29.9013672 L24.5712891,29.1015625 C24.6396488,29.2792978 24.7399082,29.4684235 24.8720703,29.6689453 C24.9905605,29.8466806 25.138671,30.0061842 25.3164062,30.1474609 C25.4895842,30.2841804 25.6809885,30.3935543 25.890625,30.4755859 C26.1002615,30.5576176 26.3417955,30.5986328 26.6152344,30.5986328 C26.9069025,30.5986328 27.157551,30.5530604 27.3671875,30.4619141 C27.5813813,30.3662105 27.7682284,30.2363289 27.9277344,30.0722656 C28.0735684,29.9173169 28.1897782,29.723634 28.2763672,29.4912109 C28.3538415,29.2770172 28.3925781,29.0354831 28.3925781,28.7666016 C28.3925781,28.2425104 28.2285173,27.809572 27.9003906,27.4677734 C27.5768213,27.1305322 27.0641311,26.9619141 26.3623047,26.9619141 C25.8108696,26.9619141 25.3050153,27.0598949 24.8447266,27.2558594 C24.3798805,27.4563812 23.9902359,27.6614573 23.6757812,27.8710938 L23.6757812,22.1972656 L29.9785156,22.1972656 L29.9785156,23.796875 L25.3574219,23.796875 L25.3574219,25.6425781 C25.5123706,25.5787757 25.715168,25.5263674 25.9658203,25.4853516 C26.2301446,25.4397784 26.4830717,25.4169922 26.7246094,25.4169922 C27.1712262,25.4169922 27.5950501,25.4853509 27.9960938,25.6220703 C28.4062521,25.7633471 28.7639959,25.9684231 29.0693359,26.2373047 C29.374676,26.5107436 29.6207673,26.8570943 29.8076172,27.2763672 C29.9944671,27.7001974 30.0878906,28.1878228 30.0878906,28.7392578 C30.0878906,29.3271514 29.9853526,29.8375629 29.7802734,30.2705078 C29.5751943,30.7034527 29.3063168,31.0611965 28.9736328,31.34375 C28.6546208,31.6171889 28.278648,31.8245436 27.8457031,31.9658203 C27.4264302,32.1025397 27.0026063,32.1708984 26.5742188,32.1708984 C26.1503885,32.1708984 25.7516295,32.107097 25.3779297,31.9794922 C25.0361311,31.861002 24.7148453,31.6923839 24.4140625,31.4736328 C24.1178371,31.2548817 23.8694671,31.0156263 23.6689453,30.7558594 C23.4593088,30.4824205 23.2929694,30.1975926 23.1699219,29.9013672 Z M31.25,27.0986328 C31.25,26.4378222 31.3251946,25.8020864 31.4755859,25.1914062 C31.6305346,24.5670542 31.8583969,24.0270205 32.1591797,23.5712891 C32.4690771,23.1018857 32.8541644,22.7281915 33.3144531,22.4501953 C33.7747419,22.1721991 34.3193328,22.0332031 34.9482422,22.0332031 C35.5725943,22.0332031 36.1126279,22.1721991 36.5683594,22.4501953 C37.0286481,22.7327488 37.4091782,23.106443 37.7099609,23.5712891 C38.0061864,24.0315778 38.2317701,24.5716115 38.3867188,25.1914062 C38.5371101,25.8020864 38.6123047,26.4378222 38.6123047,27.0986328 C38.6123047,27.768558 38.5371101,28.4065725 38.3867188,29.0126953 C38.2363274,29.6233754 38.0107437,30.1611305 37.7099609,30.6259766 C37.4091782,31.0908226 37.0286481,31.4645168 36.5683594,31.7470703 C36.1080706,32.0296238 35.568037,32.1708984 34.9482422,32.1708984 C34.3284474,32.1708984 33.7838565,32.0296238 33.3144531,31.7470703 C32.8541644,31.4690741 32.4690771,31.09538 32.1591797,30.6259766 C31.8538396,30.1702451 31.6259773,29.6324901 31.4755859,29.0126953 C31.3251946,28.4065725 31.25,27.768558 31.25,27.0986328 Z M32.9316406,27.0986328 C32.9316406,27.5771508 32.9726558,28.0283182 33.0546875,28.4521484 C33.1412765,28.8896506 33.2666007,29.2610662 33.4306641,29.5664062 C33.603842,29.8854183 33.815754,30.1360668 34.0664062,30.3183594 C34.3216159,30.5052093 34.6155582,30.5986328 34.9482422,30.5986328 C35.2809261,30.5986328 35.5748685,30.5052093 35.8300781,30.3183594 C36.0761731,30.1360668 36.2835278,29.8854183 36.4521484,29.5664062 C36.6070971,29.2701808 36.7278642,28.8987653 36.8144531,28.4521484 C36.8919275,28.0511048 36.9306641,27.5999374 36.9306641,27.0986328 C36.9306641,26.6018855 36.8919275,26.1529968 36.8144531,25.7519531 C36.7278642,25.3053363 36.6070971,24.9339208 36.4521484,24.6376953 C36.2789705,24.3095687 36.0716158,24.0566415 35.8300781,23.8789062 C35.5748685,23.6920564 35.2809261,23.5986328 34.9482422,23.5986328 C34.6155582,23.5986328 34.3216159,23.6920564 34.0664062,23.8789062 C33.8203113,24.0611988 33.6083993,24.314126 33.4306641,24.6376953 C33.2666007,24.9430354 33.1412765,25.3144509 33.0546875,25.7519531 C32.9726558,26.1757834 32.9316406,26.6246721 32.9316406,27.0986328 Z M39.7333984,27.0986328 C39.7333984,26.4378222 39.808593,25.8020864 39.9589844,25.1914062 C40.1139331,24.5670542 40.3417954,24.0270205 40.6425781,23.5712891 C40.9524755,23.1018857 41.3375628,22.7281915 41.7978516,22.4501953 C42.2581403,22.1721991 42.8027312,22.0332031 43.4316406,22.0332031 C44.0559927,22.0332031 44.5960264,22.1721991 45.0517578,22.4501953 C45.5120466,22.7327488 45.8925766,23.106443 46.1933594,23.5712891 C46.4895848,24.0315778 46.7151685,24.5716115 46.8701172,25.1914062 C47.0205086,25.8020864 47.0957031,26.4378222 47.0957031,27.0986328 C47.0957031,27.768558 47.0205086,28.4065725 46.8701172,29.0126953 C46.7197258,29.6233754 46.4941421,30.1611305 46.1933594,30.6259766 C45.8925766,31.0908226 45.5120466,31.4645168 45.0517578,31.7470703 C44.5914691,32.0296238 44.0514354,32.1708984 43.4316406,32.1708984 C42.8118459,32.1708984 42.267255,32.0296238 41.7978516,31.7470703 C41.3375628,31.4690741 40.9524755,31.09538 40.6425781,30.6259766 C40.3372381,30.1702451 40.1093758,29.6324901 39.9589844,29.0126953 C39.808593,28.4065725 39.7333984,27.768558 39.7333984,27.0986328 Z M41.4150391,27.0986328 C41.4150391,27.5771508 41.4560543,28.0283182 41.5380859,28.4521484 C41.6246749,28.8896506 41.7499992,29.2610662 41.9140625,29.5664062 C42.0872404,29.8854183 42.2991524,30.1360668 42.5498047,30.3183594 C42.8050143,30.5052093 43.0989567,30.5986328 43.4316406,30.5986328 C43.7643246,30.5986328 44.058267,30.5052093 44.3134766,30.3183594 C44.5595715,30.1360668 44.7669262,29.8854183 44.9355469,29.5664062 C45.0904956,29.2701808 45.2112626,28.8987653 45.2978516,28.4521484 C45.3753259,28.0511048 45.4140625,27.5999374 45.4140625,27.0986328 C45.4140625,26.6018855 45.3753259,26.1529968 45.2978516,25.7519531 C45.2112626,25.3053363 45.0904956,24.9339208 44.9355469,24.6376953 C44.7623689,24.3095687 44.5550142,24.0566415 44.3134766,23.8789062 C44.058267,23.6920564 43.7643246,23.5986328 43.4316406,23.5986328 C43.0989567,23.5986328 42.8050143,23.6920564 42.5498047,23.8789062 C42.3037097,24.0611988 42.0917978,24.314126 41.9140625,24.6376953 C41.7499992,24.9430354 41.6246749,25.3144509 41.5380859,25.7519531 C41.4560543,26.1757834 41.4150391,26.6246721 41.4150391,27.0986328 Z M52.8105469,32 L52.8105469,22.1972656 L54.4853516,22.1972656 L54.4853516,26.5927734 L57.9853516,22.1972656 L60.0908203,22.1972656 L56.2490234,27.0166016 L60.5625,32 L58.3408203,32 L54.4853516,27.5771484 L54.4853516,32 L52.8105469,32 Z M67.3642578,31.8359375 C66.525712,32.0592459 65.7487015,32.1708984 65.0332031,32.1708984 C63.8346294,32.1708984 62.8878615,31.8188512 62.1928711,31.1147461 C61.4978806,30.410641 61.1503906,29.45248 61.1503906,28.2402344 C61.1503906,27.0143168 61.5081344,26.0550165 62.2236328,25.3623047 C62.9391312,24.6695929 63.9280536,24.3232422 65.1904297,24.3232422 C65.8011098,24.3232422 66.5052043,24.421223 67.3027344,24.6171875 L67.3027344,26.0800781 C66.4733031,25.8111966 65.8102238,25.6767578 65.3134766,25.6767578 C64.7073537,25.6767578 64.2197284,25.9091774 63.8505859,26.3740234 C63.4814435,26.8388695 63.296875,27.4563764 63.296875,28.2265625 C63.296875,29.0149779 63.4962545,29.6461565 63.8950195,30.1201172 C64.2937845,30.5940779 64.825843,30.8310547 65.4912109,30.8310547 C66.0973338,30.8310547 66.7216765,30.6988946 67.3642578,30.4345703 L67.3642578,31.8359375 Z M67.6650391,21.0351562 L66.0175781,23.2294922 L64.1513672,23.2294922 L62.5039062,21.0351562 L63.7275391,21.0351562 L65.0742188,22.3886719 L65.0947266,22.3886719 L66.4414062,21.0351562 L67.6650391,21.0351562 Z" id="500-KÄ" fill="#222222"></path>
                <rect id="Rectangle" fill="#000000" x="14.4806394" y="10" width="1" height="1"></rect>
                <rect id="Rectangle-Copy-20" fill="#000000" x="4.48063935" y="0" width="1" height="1"></rect>
                <rect id="Rectangle-Copy-60" fill="#000000" x="11.4884787" y="10" width="1" height="1"></rect>
                <rect id="Rectangle-Copy-71" fill="#000000" x="1.48847874" y="0" width="1" height="1"></rect>
                <rect id="Rectangle-Copy-42" fill="#000000" x="10" y="14.5035277" width="1" height="1"></rect>
                <rect id="Rectangle-Copy-59" fill="#000000" x="0" y="4.50352766" width="1" height="1"></rect>
                <rect id="Rectangle-Copy-61" fill="#000000" x="10" y="11.5231662" width="1" height="1"></rect>
                <rect id="Rectangle-Copy-72" fill="#000000" x="0" y="1.52316623" width="1" height="1"></rect>
                <rect id="Rectangle-Copy-51" fill="#000000" x="79" y="14.5035277" width="1" height="1"></rect>
                <rect id="Rectangle-Copy-73" fill="#000000" x="69" y="4.50352766" width="1" height="1"></rect>
                <rect id="Rectangle-Copy-64" fill="#000000" x="79" y="11.5231662" width="1" height="1"></rect>
                <rect id="Rectangle-Copy-74" fill="#000000" x="69" y="1.52316623" width="1" height="1"></rect>
                <rect id="Rectangle-Copy-43" fill="#000000" x="10" y="17.4838891" width="1" height="1"></rect>
                <rect id="Rectangle-Copy-75" fill="#000000" x="0" y="7.48388909" width="1" height="1"></rect>
                <rect id="Rectangle-Copy-52" fill="#000000" x="79" y="17.4838891" width="1" height="1"></rect>
                <rect id="Rectangle-Copy-76" fill="#000000" x="69" y="7.48388909" width="1" height="1"></rect>
                <rect id="Rectangle-Copy-44" fill="#000000" x="10" y="20.5075276" width="1" height="1"></rect>
                <rect id="Rectangle-Copy-77" fill="#000000" x="0" y="10.5075276" width="1" height="1"></rect>
                <rect id="Rectangle-Copy-53" fill="#000000" x="79" y="20.5075276" width="1" height="1"></rect>
                <rect id="Rectangle-Copy-78" fill="#000000" x="69" y="10" width="1" height="1"></rect>
                <rect id="Rectangle-Copy-45" fill="#000000" x="10" y="23.5075276" width="1" height="1"></rect>
                <rect id="Rectangle-Copy-79" fill="#000000" x="0" y="13.5075276" width="1" height="1"></rect>
                <rect id="Rectangle-Copy-54" fill="#000000" x="79" y="23.5075276" width="1" height="1"></rect>
                <rect id="Rectangle-Copy-46" fill="#000000" x="10" y="26.5075276" width="1" height="1"></rect>
                <rect id="Rectangle-Copy-81" fill="#000000" x="0" y="16.5075276" width="1" height="1"></rect>
                <rect id="Rectangle-Copy-55" fill="#000000" x="79" y="26.5075276" width="1" height="1"></rect>
                <rect id="Rectangle-Copy-47" fill="#000000" x="10" y="29.5075276" width="1" height="1"></rect>
                <rect id="Rectangle-Copy-83" fill="#000000" x="0" y="19.5075276" width="1" height="1"></rect>
                <rect id="Rectangle-Copy-56" fill="#000000" x="79" y="29.5075276" width="1" height="1"></rect>
                <rect id="Rectangle-Copy-85" fill="#000000" x="0" y="22.5075276" width="1" height="1"></rect>
                <rect id="Rectangle-Copy-57" fill="#000000" x="79" y="32.5075276" width="1" height="1"></rect>
                <rect id="Rectangle-Copy-49" fill="#000000" x="10" y="35.5075276" width="1" height="1"></rect>
                <rect id="Rectangle-Copy-87" fill="#000000" x="0" y="25.5075276" width="1" height="1"></rect>
                <rect id="Rectangle-Copy-65" fill="#000000" x="10" y="38.5075276" width="1" height="1"></rect>
                <rect id="Rectangle-Copy-88" fill="#000000" x="0" y="28.5075276" width="1" height="1"></rect>
                <rect id="Rectangle-Copy-58" fill="#000000" x="79" y="35.5075276" width="1" height="1"></rect>
                <rect id="Rectangle-Copy-69" fill="#000000" x="79" y="38.5075276" width="1" height="1"></rect>
                <rect id="Rectangle-Copy-66" fill="#000000" x="10" y="41.5075276" width="1" height="1"></rect>
                <rect id="Rectangle-Copy-91" fill="#000000" x="0" y="31.5075276" width="1" height="1"></rect>
                <rect id="Rectangle-Copy-70" fill="#000000" x="79" y="41.5075276" width="1" height="1"></rect>
                <rect id="Rectangle-Copy-21" fill="#000000" x="14.4883995" y="43" width="1" height="1"></rect>
                <rect id="Rectangle-Copy-41" fill="#000000" x="4.48839947" y="33" width="1" height="1"></rect>
                <rect id="Rectangle-Copy-50" fill="#000000" x="11.4962388" y="43" width="1" height="1"></rect>
                <rect id="Rectangle-Copy-93" fill="#000000" x="1.49623885" y="33" width="1" height="1"></rect>
                <rect id="Rectangle-Copy" fill="#000000" x="17.4728" y="10" width="1" height="1"></rect>
                <rect id="Rectangle-Copy-94" fill="#000000" x="7.47279997" y="0" width="1" height="1"></rect>
                <rect id="Rectangle-Copy-22" fill="#000000" x="17.4805601" y="43" width="1" height="1"></rect>
                <rect id="Rectangle-Copy-95" fill="#000000" x="7.48056008" y="33" width="1" height="1"></rect>
                <rect id="Rectangle-Copy-2" fill="#000000" x="20.4729585" y="10" width="1" height="1"></rect>
                <rect id="Rectangle-Copy-96" fill="#000000" x="10.4729585" y="0" width="1" height="1"></rect>
                <rect id="Rectangle-Copy-23" fill="#000000" x="20.4807186" y="43" width="1" height="1"></rect>
                <rect id="Rectangle-Copy-97" fill="#000000" x="10" y="33" width="1" height="1"></rect>
                <rect id="Rectangle-Copy-3" fill="#000000" x="23.4729585" y="10" width="1" height="1"></rect>
                <rect id="Rectangle-Copy-98" fill="#000000" x="13.4729585" y="0" width="1" height="1"></rect>
                <rect id="Rectangle-Copy-24" fill="#000000" x="23.4807186" y="43" width="1" height="1"></rect>
                <rect id="Rectangle-Copy-4" fill="#000000" x="26.4729585" y="10" width="1" height="1"></rect>
                <rect id="Rectangle-Copy-100" fill="#000000" x="16.4729585" y="0" width="1" height="1"></rect>
                <rect id="Rectangle-Copy-25" fill="#000000" x="26.4807186" y="43" width="1" height="1"></rect>
                <rect id="Rectangle-Copy-5" fill="#000000" x="29.4729585" y="10" width="1" height="1"></rect>
                <rect id="Rectangle-Copy-102" fill="#000000" x="19.4729585" y="0" width="1" height="1"></rect>
                <rect id="Rectangle-Copy-26" fill="#000000" x="29.4807186" y="43" width="1" height="1"></rect>
                <rect id="Rectangle-Copy-6" fill="#000000" x="32.4729585" y="10" width="1" height="1"></rect>
                <rect id="Rectangle-Copy-104" fill="#000000" x="22.4729585" y="0" width="1" height="1"></rect>
                <rect id="Rectangle-Copy-27" fill="#000000" x="32.4807186" y="43" width="1" height="1"></rect>
                <rect id="Rectangle-Copy-7" fill="#000000" x="35.4729585" y="10" width="1" height="1"></rect>
                <rect id="Rectangle-Copy-106" fill="#000000" x="25.4729585" y="0" width="1" height="1"></rect>
                <rect id="Rectangle-Copy-28" fill="#000000" x="35.4807186" y="43" width="1" height="1"></rect>
                <rect id="Rectangle-Copy-8" fill="#000000" x="38.4729585" y="10" width="1" height="1"></rect>
                <rect id="Rectangle-Copy-108" fill="#000000" x="28.4729585" y="0" width="1" height="1"></rect>
                <rect id="Rectangle-Copy-29" fill="#000000" x="38.4807186" y="43" width="1" height="1"></rect>
                <rect id="Rectangle-Copy-9" fill="#000000" x="41.4729585" y="10" width="1" height="1"></rect>
                <rect id="Rectangle-Copy-110" fill="#000000" x="31.4729585" y="0" width="1" height="1"></rect>
                <rect id="Rectangle-Copy-30" fill="#000000" x="41.4807186" y="43" width="1" height="1"></rect>
                <rect id="Rectangle-Copy-10" fill="#000000" x="44.4729585" y="10" width="1" height="1"></rect>
                <rect id="Rectangle-Copy-112" fill="#000000" x="34.4729585" y="0" width="1" height="1"></rect>
                <rect id="Rectangle-Copy-31" fill="#000000" x="44.4807186" y="43" width="1" height="1"></rect>
                <rect id="Rectangle-Copy-11" fill="#000000" x="47.4729585" y="10" width="1" height="1"></rect>
                <rect id="Rectangle-Copy-114" fill="#000000" x="37.4729585" y="0" width="1" height="1"></rect>
                <rect id="Rectangle-Copy-32" fill="#000000" x="47.4807186" y="43" width="1" height="1"></rect>
                <rect id="Rectangle-Copy-12" fill="#000000" x="50.4729585" y="10" width="1" height="1"></rect>
                <rect id="Rectangle-Copy-116" fill="#000000" x="40.4729585" y="0" width="1" height="1"></rect>
                <rect id="Rectangle-Copy-33" fill="#000000" x="50.4807186" y="43" width="1" height="1"></rect>
                <rect id="Rectangle-Copy-13" fill="#000000" x="53.4729585" y="10" width="1" height="1"></rect>
                <rect id="Rectangle-Copy-118" fill="#000000" x="43.4729585" y="0" width="1" height="1"></rect>
                <rect id="Rectangle-Copy-34" fill="#000000" x="53.4807186" y="43" width="1" height="1"></rect>
                <rect id="Rectangle-Copy-14" fill="#000000" x="56.4729585" y="10" width="1" height="1"></rect>
                <rect id="Rectangle-Copy-120" fill="#000000" x="46.4729585" y="0" width="1" height="1"></rect>
                <rect id="Rectangle-Copy-35" fill="#000000" x="56.4807186" y="43" width="1" height="1"></rect>
                <rect id="Rectangle-Copy-15" fill="#000000" x="59.4729585" y="10" width="1" height="1"></rect>
                <rect id="Rectangle-Copy-122" fill="#000000" x="49.4729585" y="0" width="1" height="1"></rect>
                <rect id="Rectangle-Copy-36" fill="#000000" x="59.4807186" y="43" width="1" height="1"></rect>
                <rect id="Rectangle-Copy-16" fill="#000000" x="62.4729585" y="10" width="1" height="1"></rect>
                <rect id="Rectangle-Copy-124" fill="#000000" x="52.4729585" y="0" width="1" height="1"></rect>
                <rect id="Rectangle-Copy-37" fill="#000000" x="62.4807186" y="43" width="1" height="1"></rect>
                <rect id="Rectangle-Copy-17" fill="#000000" x="65.4729585" y="10" width="1" height="1"></rect>
                <rect id="Rectangle-Copy-126" fill="#000000" x="55.4729585" y="0" width="1" height="1"></rect>
                <rect id="Rectangle-Copy-38" fill="#000000" x="65.4807186" y="43" width="1" height="1"></rect>
                <rect id="Rectangle-Copy-128" fill="#000000" x="58.4729585" y="0" width="1" height="1"></rect>
                <rect id="Rectangle-Copy-39" fill="#000000" x="68.4807186" y="43" width="1" height="1"></rect>
                <rect id="Rectangle-Copy-19" fill="#000000" x="71.4729585" y="10" width="1" height="1"></rect>
                <rect id="Rectangle-Copy-130" fill="#000000" x="61.4729585" y="0" width="1" height="1"></rect>
                <rect id="Rectangle-Copy-62" fill="#000000" x="74.4729585" y="10" width="1" height="1"></rect>
                <rect id="Rectangle-Copy-131" fill="#000000" x="64.4729585" y="0" width="1" height="1"></rect>
                <rect id="Rectangle-Copy-40" fill="#000000" x="71.4807186" y="43" width="1" height="1"></rect>
                <rect id="Rectangle-Copy-67" fill="#000000" x="74.4883995" y="43" width="1" height="1"></rect>
                <rect id="Rectangle-Copy-63" fill="#000000" x="77.4729585" y="10" width="1" height="1"></rect>
                <rect id="Rectangle-Copy-134" fill="#000000" x="67.4729585" y="0" width="1" height="1"></rect>
                <rect id="Rectangle-Copy-68" fill="#000000" x="77.4883995" y="43" width="1" height="1"></rect>
            </g>
        </g>
    </g>
</svg>