<?xml version="1.0" encoding="UTF-8"?>
<svg width="80px" height="44px" viewBox="0 0 80 44" version="1.1" xmlns="http://www.w3.org/2000/svg" xmlns:xlink="http://www.w3.org/1999/xlink">
    <!-- Generator: Sketch 50.2 (55047) - http://www.bohemiancoding.com/sketch -->
    <title>ico_cupon</title>
    <desc>Created with Sketch.</desc>
    <defs></defs>
    <g id="Rezani" stroke="none" stroke-width="1" fill="none" fill-rule="evenodd">
        <g id="Artboard" transform="translate(-1055.000000, -417.000000)" fill="#000000">
            <g id="ico_cupon" transform="translate(1055.000000, 417.000000)">
                <rect id="Rectangle" x="14.4806394" y="10" width="1" height="1"></rect>
                <rect id="Rectangle-Copy-20" x="4.48063935" y="0" width="1" height="1"></rect>
                <rect id="Rectangle-Copy-60" x="11.4884787" y="10" width="1" height="1"></rect>
                <rect id="Rectangle-Copy-71" x="1.48847874" y="0" width="1" height="1"></rect>
                <rect id="Rectangle-Copy-42" x="10" y="14.5035277" width="1" height="1"></rect>
                <rect id="Rectangle-Copy-59" x="0" y="4.50352766" width="1" height="1"></rect>
                <rect id="Rectangle-Copy-61" x="10" y="11.5231662" width="1" height="1"></rect>
                <rect id="Rectangle-Copy-72" x="0" y="1.52316623" width="1" height="1"></rect>
                <rect id="Rectangle-Copy-51" x="79" y="14.5035277" width="1" height="1"></rect>
                <rect id="Rectangle-Copy-73" x="69" y="4.50352766" width="1" height="1"></rect>
                <rect id="Rectangle-Copy-64" x="79" y="11.5231662" width="1" height="1"></rect>
                <rect id="Rectangle-Copy-74" x="69" y="1.52316623" width="1" height="1"></rect>
                <rect id="Rectangle-Copy-43" x="10" y="17.4838891" width="1" height="1"></rect>
                <rect id="Rectangle-Copy-75" x="0" y="7.48388909" width="1" height="1"></rect>
                <rect id="Rectangle-Copy-52" x="79" y="17.4838891" width="1" height="1"></rect>
                <rect id="Rectangle-Copy-76" x="69" y="7.48388909" width="1" height="1"></rect>
                <rect id="Rectangle-Copy-44" x="10" y="20.5075276" width="1" height="1"></rect>
                <rect id="Rectangle-Copy-77" x="0" y="10.5075276" width="1" height="1"></rect>
                <rect id="Rectangle-Copy-53" x="79" y="20.5075276" width="1" height="1"></rect>
                <rect id="Rectangle-Copy-78" x="69" y="10" width="1" height="1"></rect>
                <rect id="Rectangle-Copy-45" x="10" y="23.5075276" width="1" height="1"></rect>
                <rect id="Rectangle-Copy-79" x="0" y="13.5075276" width="1" height="1"></rect>
                <rect id="Rectangle-Copy-54" x="79" y="23.5075276" width="1" height="1"></rect>
                <rect id="Rectangle-Copy-46" x="10" y="26.5075276" width="1" height="1"></rect>
                <rect id="Rectangle-Copy-81" x="0" y="16.5075276" width="1" height="1"></rect>
                <rect id="Rectangle-Copy-55" x="79" y="26.5075276" width="1" height="1"></rect>
                <rect id="Rectangle-Copy-47" x="10" y="29.5075276" width="1" height="1"></rect>
                <rect id="Rectangle-Copy-83" x="0" y="19.5075276" width="1" height="1"></rect>
                <rect id="Rectangle-Copy-56" x="79" y="29.5075276" width="1" height="1"></rect>
                <rect id="Rectangle-Copy-85" x="0" y="22.5075276" width="1" height="1"></rect>
                <rect id="Rectangle-Copy-57" x="79" y="32.5075276" width="1" height="1"></rect>
                <rect id="Rectangle-Copy-49" x="10" y="35.5075276" width="1" height="1"></rect>
                <rect id="Rectangle-Copy-87" x="0" y="25.5075276" width="1" height="1"></rect>
                <rect id="Rectangle-Copy-65" x="10" y="38.5075276" width="1" height="1"></rect>
                <rect id="Rectangle-Copy-88" x="0" y="28.5075276" width="1" height="1"></rect>
                <rect id="Rectangle-Copy-58" x="79" y="35.5075276" width="1" height="1"></rect>
                <rect id="Rectangle-Copy-69" x="79" y="38.5075276" width="1" height="1"></rect>
                <rect id="Rectangle-Copy-66" x="10" y="41.5075276" width="1" height="1"></rect>
                <rect id="Rectangle-Copy-91" x="0" y="31.5075276" width="1" height="1"></rect>
                <rect id="Rectangle-Copy-70" x="79" y="41.5075276" width="1" height="1"></rect>
                <rect id="Rectangle-Copy-21" x="14.4883995" y="43" width="1" height="1"></rect>
                <rect id="Rectangle-Copy-41" x="4.48839947" y="33" width="1" height="1"></rect>
                <rect id="Rectangle-Copy-50" x="11.4962388" y="43" width="1" height="1"></rect>
                <rect id="Rectangle-Copy-93" x="1.49623885" y="33" width="1" height="1"></rect>
                <rect id="Rectangle-Copy" x="17.4728" y="10" width="1" height="1"></rect>
                <rect id="Rectangle-Copy-94" x="7.47279997" y="0" width="1" height="1"></rect>
                <rect id="Rectangle-Copy-22" x="17.4805601" y="43" width="1" height="1"></rect>
                <rect id="Rectangle-Copy-95" x="7.48056008" y="33" width="1" height="1"></rect>
                <rect id="Rectangle-Copy-2" x="20.4729585" y="10" width="1" height="1"></rect>
                <rect id="Rectangle-Copy-96" x="10.4729585" y="0" width="1" height="1"></rect>
                <rect id="Rectangle-Copy-23" x="20.4807186" y="43" width="1" height="1"></rect>
                <rect id="Rectangle-Copy-97" x="10" y="33" width="1" height="1"></rect>
                <rect id="Rectangle-Copy-3" x="23.4729585" y="10" width="1" height="1"></rect>
                <rect id="Rectangle-Copy-98" x="13.4729585" y="0" width="1" height="1"></rect>
                <rect id="Rectangle-Copy-24" x="23.4807186" y="43" width="1" height="1"></rect>
                <rect id="Rectangle-Copy-4" x="26.4729585" y="10" width="1" height="1"></rect>
                <rect id="Rectangle-Copy-100" x="16.4729585" y="0" width="1" height="1"></rect>
                <rect id="Rectangle-Copy-25" x="26.4807186" y="43" width="1" height="1"></rect>
                <rect id="Rectangle-Copy-5" x="29.4729585" y="10" width="1" height="1"></rect>
                <rect id="Rectangle-Copy-102" x="19.4729585" y="0" width="1" height="1"></rect>
                <rect id="Rectangle-Copy-26" x="29.4807186" y="43" width="1" height="1"></rect>
                <rect id="Rectangle-Copy-6" x="32.4729585" y="10" width="1" height="1"></rect>
                <rect id="Rectangle-Copy-104" x="22.4729585" y="0" width="1" height="1"></rect>
                <rect id="Rectangle-Copy-27" x="32.4807186" y="43" width="1" height="1"></rect>
                <rect id="Rectangle-Copy-7" x="35.4729585" y="10" width="1" height="1"></rect>
                <rect id="Rectangle-Copy-106" x="25.4729585" y="0" width="1" height="1"></rect>
                <rect id="Rectangle-Copy-28" x="35.4807186" y="43" width="1" height="1"></rect>
                <rect id="Rectangle-Copy-8" x="38.4729585" y="10" width="1" height="1"></rect>
                <rect id="Rectangle-Copy-108" x="28.4729585" y="0" width="1" height="1"></rect>
                <rect id="Rectangle-Copy-29" x="38.4807186" y="43" width="1" height="1"></rect>
                <rect id="Rectangle-Copy-9" x="41.4729585" y="10" width="1" height="1"></rect>
                <rect id="Rectangle-Copy-110" x="31.4729585" y="0" width="1" height="1"></rect>
                <rect id="Rectangle-Copy-30" x="41.4807186" y="43" width="1" height="1"></rect>
                <rect id="Rectangle-Copy-10" x="44.4729585" y="10" width="1" height="1"></rect>
                <rect id="Rectangle-Copy-112" x="34.4729585" y="0" width="1" height="1"></rect>
                <rect id="Rectangle-Copy-31" x="44.4807186" y="43" width="1" height="1"></rect>
                <rect id="Rectangle-Copy-11" x="47.4729585" y="10" width="1" height="1"></rect>
                <rect id="Rectangle-Copy-114" x="37.4729585" y="0" width="1" height="1"></rect>
                <rect id="Rectangle-Copy-32" x="47.4807186" y="43" width="1" height="1"></rect>
                <rect id="Rectangle-Copy-12" x="50.4729585" y="10" width="1" height="1"></rect>
                <rect id="Rectangle-Copy-116" x="40.4729585" y="0" width="1" height="1"></rect>
                <rect id="Rectangle-Copy-33" x="50.4807186" y="43" width="1" height="1"></rect>
                <rect id="Rectangle-Copy-13" x="53.4729585" y="10" width="1" height="1"></rect>
                <rect id="Rectangle-Copy-118" x="43.4729585" y="0" width="1" height="1"></rect>
                <rect id="Rectangle-Copy-34" x="53.4807186" y="43" width="1" height="1"></rect>
                <rect id="Rectangle-Copy-14" x="56.4729585" y="10" width="1" height="1"></rect>
                <rect id="Rectangle-Copy-120" x="46.4729585" y="0" width="1" height="1"></rect>
                <rect id="Rectangle-Copy-35" x="56.4807186" y="43" width="1" height="1"></rect>
                <rect id="Rectangle-Copy-15" x="59.4729585" y="10" width="1" height="1"></rect>
                <rect id="Rectangle-Copy-122" x="49.4729585" y="0" width="1" height="1"></rect>
                <rect id="Rectangle-Copy-36" x="59.4807186" y="43" width="1" height="1"></rect>
                <rect id="Rectangle-Copy-16" x="62.4729585" y="10" width="1" height="1"></rect>
                <rect id="Rectangle-Copy-124" x="52.4729585" y="0" width="1" height="1"></rect>
                <rect id="Rectangle-Copy-37" x="62.4807186" y="43" width="1" height="1"></rect>
                <rect id="Rectangle-Copy-17" x="65.4729585" y="10" width="1" height="1"></rect>
                <rect id="Rectangle-Copy-126" x="55.4729585" y="0" width="1" height="1"></rect>
                <rect id="Rectangle-Copy-38" x="65.4807186" y="43" width="1" height="1"></rect>
                <rect id="Rectangle-Copy-128" x="58.4729585" y="0" width="1" height="1"></rect>
                <rect id="Rectangle-Copy-39" x="68.4807186" y="43" width="1" height="1"></rect>
                <rect id="Rectangle-Copy-19" x="71.4729585" y="10" width="1" height="1"></rect>
                <rect id="Rectangle-Copy-130" x="61.4729585" y="0" width="1" height="1"></rect>
                <rect id="Rectangle-Copy-62" x="74.4729585" y="10" width="1" height="1"></rect>
                <rect id="Rectangle-Copy-131" x="64.4729585" y="0" width="1" height="1"></rect>
                <rect id="Rectangle-Copy-40" x="71.4807186" y="43" width="1" height="1"></rect>
                <rect id="Rectangle-Copy-67" x="74.4883995" y="43" width="1" height="1"></rect>
                <rect id="Rectangle-Copy-63" x="77.4729585" y="10" width="1" height="1"></rect>
                <rect id="Rectangle-Copy-134" x="67.4729585" y="0" width="1" height="1"></rect>
                <rect id="Rectangle-Copy-68" x="77.4883995" y="43" width="1" height="1"></rect>
            </g>
        </g>
    </g>
</svg>