<?xml version="1.0" encoding="UTF-8"?>
<svg width="22px" height="15px" viewBox="0 0 22 15" version="1.1" xmlns="http://www.w3.org/2000/svg" xmlns:xlink="http://www.w3.org/1999/xlink">
    <!-- Generator: Sketch 50.2 (55047) - http://www.bohemiancoding.com/sketch -->
    <title>ico_ct_big</title>
    <desc>Created with Sketch.</desc>
    <defs></defs>
    <g id="Rezani" stroke="none" stroke-width="1" fill="none" fill-rule="evenodd">
        <g id="Artboard" transform="translate(-734.000000, -182.000000)">
            <g id="ico_ct_big" transform="translate(734.000000, 182.000000)">
                <path d="M22,7.49966569 C22,8.37934416 21.9394251,9.67490305 21.7331128,10.8926794 C21.2377844,13.8158774 20.4760159,14.4780322 16.3922393,14.8034263 C14.908713,14.9211031 13.3026957,14.9794957 12,15 L12,13.07438 C12.6171487,13.0523156 13.3067191,13.0110842 13.9531494,12.9417708 C16.2301846,12.6992853 16.655103,12.2069596 16.9300371,10.0270419 C17.0449282,9.12128731 17.0791274,8.15557999 17.0791274,7.5012258 C17.0791274,6.84442001 17.0449282,5.88049567 16.9300371,4.97184375 C16.655103,2.79125745 16.2301846,2.29915457 13.9531494,2.05666909 C13.3067191,1.98802431 12.6171487,1.94656999 12,1.92472847 L12,0 C13.3026957,0.0207271593 14.908713,0.0784511835 16.3922393,0.195905086 C20.4760159,0.52219069 21.2377844,1.18300819 21.7331128,4.10642913 C21.9394251,5.32442833 22,6.61976435 22,7.49966569" id="Fill-4" fill="#EE3D42"></path>
                <path d="M5.57486667,0.347470588 C7.04997778,0.231661765 8.64708889,0.174088235 9.94242222,0.153573529 L9.94242222,2.05857353 C9.3282,2.08041176 8.64264444,2.12122059 7.99931111,2.18938235 C5.73642222,2.42938235 5.31375556,2.91644118 5.03997778,5.07467647 C4.92553333,5.97401471 4.89175556,6.92783824 4.89175556,7.57791176 C4.89175556,8.22577941 4.92553333,9.18136765 5.03997778,10.0780588 C5.31375556,12.2356324 5.73642222,12.7229118 7.99931111,12.9626912 C8.64264444,13.0315147 9.3282,13.0725441 9.94242222,13.0939412 L9.94242222,14.9998235 C8.64708889,14.9793088 7.04997778,14.9217353 5.57486667,14.8050441 C1.51531111,14.4829853 0.757977778,13.8280588 0.265311111,10.9348235 C0.0602,9.72930882 -2.22222222e-05,8.44725 -2.22222222e-05,7.57636765 C-2.22222222e-05,6.70548529 0.0602,5.42364706 0.265311111,4.21813235 C0.757977778,1.32467647 1.51531111,0.670411765 5.57486667,0.347470588" id="Fill-1" fill="#002D62"></path>
            </g>
        </g>
    </g>
</svg>